<svg width="40" height="40" viewBox="0 0 40 40" fill="none" xmlns="http://www.w3.org/2000/svg">
<g clip-path="url(#clip0_28_1834)">
<path d="M33.3594 0.5H6.64062C2.97311 0.5 0 3.46835 0 7.13V32.8076C0 36.4692 2.97311 39.4376 6.64062 39.4376H33.3594C37.0269 39.4376 40 36.4692 40 32.8076V7.13C40 3.46835 37.0269 0.5 33.3594 0.5Z" fill="#470137"/>
<path d="M21.0279 10.7399L16.0368 18.9646L21.3766 27.6983C21.4109 27.7594 21.4205 27.8312 21.4035 27.8992C21.3952 27.9282 21.3774 27.9353 21.3501 27.9364L21.3196 27.936L21.2828 27.935C21.2628 27.9349 21.2404 27.9359 21.2157 27.94L17.3657 27.9399L17.29 27.9388C17.0824 27.9334 16.9331 27.9038 16.8418 27.7518C16.4837 27.0553 16.126 26.3632 15.7685 25.6756C15.4552 25.0741 15.125 24.4622 14.7779 23.8399L14.6281 23.5725C14.2256 22.8584 13.8276 22.1351 13.434 21.4025H13.4072C13.0491 22.1171 12.6779 22.8315 12.2936 23.5457C11.9087 24.2603 11.5286 24.9703 11.1532 25.6756C10.7775 26.3813 10.3929 27.0823 9.99937 27.7786C9.93611 27.9205 9.83103 27.9501 9.68447 27.9551L9.62364 27.956H5.94753L5.93163 27.9564L5.87904 27.9612C5.84985 27.9629 5.83242 27.9566 5.82676 27.9126C5.81667 27.8472 5.831 27.7805 5.86705 27.725L11.0458 19.2325L6.00116 10.7131C5.94753 10.642 5.93858 10.584 5.9743 10.539C6.01447 10.4927 6.07411 10.4679 6.13536 10.472H9.9188C10.0013 10.4675 10.0838 10.4812 10.1603 10.5122C10.2245 10.5485 10.2795 10.5989 10.3213 10.6596C10.6433 11.3741 11.0011 12.0885 11.3946 12.8028C11.7879 13.5173 12.186 14.2228 12.5887 14.9192C12.9912 15.6158 13.3624 16.3213 13.7023 17.0357H13.7292C14.0868 16.3035 14.449 15.5891 14.8159 14.8925C15.1824 14.1959 15.558 13.4949 15.9429 12.7894C16.3274 12.0841 16.6986 11.383 17.0565 10.6864C17.0771 10.6202 17.114 10.5604 17.1638 10.5122C17.2301 10.4787 17.3046 10.4647 17.3785 10.472H20.8937C20.9635 10.4548 21.0359 10.4882 21.068 10.5524C21.0973 10.6108 21.0861 10.6804 21.0421 10.7268L21.0279 10.7399ZM28.9138 28.2857L28.7287 28.2877C27.4936 28.3064 26.2699 28.0502 25.1464 27.5375C24.0999 27.0539 23.225 26.2645 22.6376 25.2737C22.0452 24.2914 21.7412 23.0676 21.7258 21.6022L21.7252 21.4829C21.7151 20.2533 22.0298 19.0428 22.6376 17.9733C23.2462 16.9143 24.1333 16.0423 25.202 15.4514L25.2941 15.4015C26.4567 14.7585 27.8609 14.437 29.5069 14.437L29.5789 14.4379L29.661 14.4404L29.7533 14.4446L29.8557 14.4504L30.0279 14.4625L30.2229 14.4782L30.3655 14.4906V9.21289C30.3655 9.08813 30.4192 9.02536 30.5266 9.02536H33.9075C33.9518 9.01903 33.9966 9.03391 34.0283 9.06552C34.0599 9.09714 34.0749 9.1418 34.0685 9.18607V25.0192C34.0685 25.2851 34.0788 25.5714 34.0993 25.8779L34.1494 26.5729L34.1759 26.9749C34.1826 27.0888 34.1187 27.1952 34.0148 27.2428C33.1426 27.606 32.2341 27.8754 31.3047 28.0465C30.5156 28.1919 29.7159 28.2719 28.9138 28.2857ZM30.3655 24.9656V17.6519C30.2205 17.6126 30.0724 17.5858 29.9228 17.5715C29.74 17.5531 29.5564 17.5442 29.3727 17.5447C28.7215 17.5382 28.078 17.6851 27.4943 17.9733C26.9258 18.2555 26.4405 18.6801 26.0856 19.2057C25.7314 19.723 25.5483 20.3985 25.5361 21.2322L25.5355 21.3221C25.5224 21.9061 25.618 22.4875 25.8172 23.0367C25.9794 23.4793 26.2358 23.8814 26.5686 24.2155C26.8873 24.5229 27.2731 24.7522 27.6956 24.8853C28.1419 25.0296 28.6084 25.1019 29.0775 25.0997C29.3278 25.0997 29.5604 25.0907 29.7752 25.0728C29.9466 25.0599 30.1164 25.0317 30.2827 24.9885L30.3655 24.9656Z" fill="#FF61F6"/>
</g>
<defs>
<clipPath id="clip0_28_1834">
<rect width="40" height="39" fill="white" transform="translate(0 0.5)"/>
</clipPath>
</defs>
</svg>
