<svg width="40" height="40" viewBox="0 0 40 40" fill="none" xmlns="http://www.w3.org/2000/svg">
<path d="M12.3734 19.0447C12.704 18.4678 12.5015 17.7373 11.921 17.413C11.3406 17.0888 10.602 17.2936 10.2714 17.8706L6.39063 24.6424C6.06001 25.2193 6.26255 25.9499 6.84301 26.2741C7.42347 26.5984 8.16205 26.3935 8.49267 25.8166L12.3734 19.0447Z" fill="#C5F74F"/>
<path d="M20.7384 13.8524C21.069 13.2754 20.8665 12.5449 20.286 12.2206C19.7055 11.8964 18.967 12.1012 18.6363 12.6782L14.7556 19.45C14.425 20.027 14.6275 20.7575 15.208 21.0817C15.7885 21.406 16.527 21.2011 16.8577 20.6242L20.7384 13.8524Z" fill="#C5F74F"/>
<path d="M33.6094 13.8526C33.94 13.2757 33.7374 12.5451 33.157 12.2209C32.5765 11.8966 31.8379 12.1015 31.5073 12.6784L27.6266 19.4503C27.296 20.0272 27.4985 20.7577 28.079 21.082C28.6594 21.4062 29.398 21.2014 29.7286 20.6245L33.6094 13.8526Z" fill="#C5F74F"/>
<path d="M25.2427 19.0447C25.5733 18.4678 25.3707 17.7373 24.7903 17.413C24.2098 17.0888 23.4712 17.2936 23.1406 17.8706L19.2599 24.6424C18.9293 25.2193 19.1318 25.9499 19.7123 26.2741C20.2927 26.5984 21.0313 26.3935 21.3619 25.8166L25.2427 19.0447Z" fill="#C5F74F"/>
</svg>
