<svg width="27" height="40" viewBox="0 0 27 40" fill="none" xmlns="http://www.w3.org/2000/svg">
<g clip-path="url(#clip0_28_1813)">
<path d="M6.75 40.0001C10.476 40.0001 13.5 37.0134 13.5 33.3334V26.6667H6.75C3.024 26.6667 0 29.6534 0 33.3334C0 37.0134 3.024 40.0001 6.75 40.0001Z" fill="#0ACF83"/>
<path d="M0 19.9999C0 16.3199 3.024 13.3333 6.75 13.3333H13.5V26.6666H6.75C3.024 26.6666 0 23.6799 0 19.9999Z" fill="#A259FF"/>
<path d="M0 6.66667C0 2.98667 3.024 0 6.75 0H13.5V13.3333H6.75C3.024 13.3333 0 10.3467 0 6.66667Z" fill="#F24E1E"/>
<path d="M13.5 0H20.25C23.976 0 27 2.98667 27 6.66667C27 10.3467 23.976 13.3333 20.25 13.3333H13.5V0Z" fill="#FF7262"/>
<path d="M27 19.9999C27 23.6799 23.976 26.6666 20.25 26.6666C16.524 26.6666 13.5 23.6799 13.5 19.9999C13.5 16.3199 16.524 13.3333 20.25 13.3333C23.976 13.3333 27 16.3199 27 19.9999Z" fill="#1ABCFE"/>
</g>
<defs>
<clipPath id="clip0_28_1813">
<rect width="27" height="40" fill="white"/>
</clipPath>
</defs>
</svg>
