<svg width="40" height="40" viewBox="0 0 40 40" fill="none" xmlns="http://www.w3.org/2000/svg">
<path d="M36.84 18.4413L21.5588 3.16007C21.3497 2.95031 21.1014 2.78387 20.8279 2.67031C20.5544 2.55675 20.2612 2.49829 19.965 2.49829C19.6689 2.49829 19.3757 2.55675 19.1022 2.67031C18.8287 2.78387 18.5803 2.95031 18.3713 3.16007L15.1975 6.33382L19.2225 10.3588C19.6972 10.1973 20.2076 10.1723 20.6957 10.2868C21.1839 10.4013 21.63 10.6506 21.9834 11.0063C22.3367 11.3619 22.583 11.8097 22.6943 12.2986C22.8055 12.7875 22.7772 13.2978 22.6125 13.7713L26.4875 17.6463C27.0667 17.4473 27.6967 17.4528 28.2723 17.6619C28.848 17.871 29.3346 18.271 29.6511 18.7953C29.9676 19.3196 30.0949 19.9366 30.0118 20.5434C29.9287 21.1501 29.6401 21.7101 29.1942 22.13C28.7484 22.5498 28.1721 22.8042 27.5614 22.8507C26.9507 22.8973 26.3425 22.7332 25.8382 22.3857C25.3338 22.0383 24.9638 21.5285 24.7896 20.9413C24.6155 20.3541 24.6479 19.725 24.8813 19.1588L21.2625 15.5401V25.0613C21.8107 25.3329 22.2493 25.7841 22.5052 26.3398C22.7611 26.8955 22.8189 27.5221 22.669 28.1152C22.5191 28.7083 22.1705 29.2322 21.6813 29.5995C21.1921 29.9668 20.5918 30.1554 19.9804 30.134C19.369 30.1125 18.7834 29.8822 18.3212 29.4814C17.8589 29.0806 17.548 28.5336 17.4401 27.9314C17.3322 27.3292 17.4338 26.7082 17.7281 26.1719C18.0225 25.6356 18.4916 25.2163 19.0575 24.9838V15.3751C18.7301 15.2407 18.4326 15.043 18.1819 14.7931C17.9313 14.5433 17.7326 14.2464 17.5972 13.9194C17.4619 13.5925 17.3926 13.242 17.3932 12.8881C17.3939 12.5342 17.4646 12.184 17.6013 11.8576L13.6388 7.89257L3.16002 18.3751C2.95007 18.5841 2.78348 18.8326 2.66981 19.1062C2.55614 19.3798 2.49762 19.6732 2.49762 19.9694C2.49762 20.2657 2.55614 20.5591 2.66981 20.8327C2.78348 21.1063 2.95007 21.3548 3.16002 21.5638L18.4413 36.8401C18.6503 37.0498 18.8987 37.2163 19.1722 37.3298C19.4457 37.4434 19.7389 37.5018 20.035 37.5018C20.3312 37.5018 20.6244 37.4434 20.8979 37.3298C21.1714 37.2163 21.4197 37.0498 21.6288 36.8401L36.84 21.6251C37.05 21.416 37.2166 21.1675 37.3302 20.8939C37.4439 20.6203 37.5024 20.327 37.5024 20.0307C37.5024 19.7344 37.4439 19.441 37.3302 19.1674C37.2166 18.8938 37.05 18.6454 36.84 18.4363" fill="black"/>
<path d="M15.1975 6.33398L19.2225 10.359C19.6971 10.1975 20.2076 10.1725 20.6957 10.287C21.1838 10.4014 21.63 10.6507 21.9833 11.0064C22.3367 11.3621 22.583 11.8099 22.6942 12.2988C22.8055 12.7876 22.7771 13.2979 22.6125 13.7715L26.4875 17.6465C27.0667 17.4475 27.6966 17.453 28.2723 17.6621C28.8479 17.8712 29.3346 18.2712 29.6511 18.7955C29.9676 19.3198 30.0949 19.9367 30.0118 20.5435C29.9286 21.1503 29.6401 21.7103 29.1942 22.1301C28.7483 22.55 28.172 22.8044 27.5614 22.8509C26.9507 22.8975 26.3425 22.7333 25.8381 22.3859C25.3338 22.0384 24.9637 21.5287 24.7896 20.9415C24.6155 20.3543 24.6478 19.7252 24.8812 19.159L21.2625 15.5402V25.0615C21.8107 25.3331 22.2492 25.7843 22.5052 26.34C22.7611 26.8956 22.8189 27.5222 22.669 28.1154C22.5191 28.7085 22.1705 29.2323 21.6813 29.5997C21.192 29.967 20.5917 30.1556 19.9803 30.1341C19.3689 30.1126 18.7834 29.8823 18.3211 29.4816C17.8589 29.0808 17.5479 28.5337 17.44 27.9316C17.3321 27.3294 17.4338 26.7084 17.7281 26.1721C18.0224 25.6357 18.4916 25.2164 19.0575 24.984V15.3752C18.7301 15.2409 18.4325 15.0431 18.1819 14.7933C17.9313 14.5435 17.7326 14.2466 17.5972 13.9196C17.4619 13.5926 17.3925 13.2421 17.3932 12.8883C17.3939 12.5344 17.4646 12.1842 17.6012 11.8577L13.6387 7.89273" fill="#DD4C35"/>
</svg>
