<svg width="34" height="40" viewBox="0 0 34 40" fill="none" xmlns="http://www.w3.org/2000/svg">
<g clip-path="url(#clip0_24_909)">
<path d="M5.33483 17.4865C4.18436 18.0359 1.13923 20.5085 0.552682 21.2411C-0.0563441 21.9739 -0.236773 20.8291 0.394883 18.9288C0.89091 17.395 2.15438 15.3117 4.27473 13.5258C5.51526 12.4957 8.24479 11.0076 9.91392 10.1375C10.2525 9.95433 14.6286 8.07703 18.5311 7.1383C18.8695 7.04674 18.125 7.71063 18.0123 8.07703C17.4257 9.81699 5.71832 17.2804 5.71832 17.2804L5.33483 17.4865ZM21.8244 38.4799C22.0275 39.7163 21.847 39.8078 20.5839 39.9681C19.3206 40.1284 18.3958 39.6475 18.0576 39.327C17.7189 39.0064 17.6514 38.2969 17.9898 37.6558C18.1929 37.2436 18.3959 37.1063 18.5086 36.6027C18.6215 36.1219 18.7118 36.0074 18.8019 35.8243C18.892 35.664 18.9148 35.5037 18.9372 34.382C18.9599 33.2601 18.9372 31.1539 19.0501 30.2611C19.1629 29.3455 23.0654 30.6731 23.0654 30.6731C23.0654 30.6731 22.1405 33.0083 21.8923 33.5806C21.6441 34.1531 21.6668 35.2518 21.6668 35.4809C21.6668 35.7099 21.5765 36.1676 21.5088 36.1905C21.4411 36.2134 21.7345 36.8087 21.599 37.1521C21.5087 37.4727 21.8019 38.2969 21.8244 38.4799ZM23.3134 3.4743C23.1779 2.60448 23.3134 0.887168 23.4937 0.612486C24.0578 -0.165936 27.0352 -0.257341 27.667 0.658266C27.9376 1.07029 27.9151 2.03199 27.87 2.6501C27.8249 3.26822 27.667 4.596 27.6445 5.03131C27.622 5.35161 24.3512 5.85535 23.6293 4.98537C23.4261 4.75647 23.3134 3.4743 23.3134 3.4743ZM29.9453 36.258C31.3213 37.2655 32.3815 37.4486 33.0808 37.8149C33.78 38.1813 33.5996 38.8911 32.4265 39.097C31.4791 39.2802 29.9902 38.9139 28.998 38.9139C28.0055 38.9139 25.7946 39.0285 25.2081 38.6163C24.5315 38.1357 24.8246 37.2425 24.8246 37.2425C25.0052 36.7391 25.4562 35.6171 25.3209 34.7014C25.1854 33.7857 25.005 33.282 24.6666 32.4348C24.3284 31.588 24.0802 29.5046 24.3961 29.3899C24.7119 29.2752 24.6215 29.3899 25.0276 29.4815C25.4338 29.5729 25.8848 29.7104 26.7645 29.7104C27.6442 29.7104 28.6142 29.5729 28.9526 29.5044C29.291 29.4357 29.5616 29.3669 29.4488 30.0768C29.3361 30.7864 28.9977 32.1142 28.9751 33.1445C28.9526 34.1746 28.9526 35.3652 29.0203 35.5713C29.0879 35.7773 29.5843 36.0063 29.9451 36.258H29.9453Z" fill="#010101"/>
<path d="M25.1177 5.76474C22.6365 7.9397 17.8315 8.535 10.7037 11.3281C8.87642 12.0377 4.00406 14.1671 2.83112 16.3877C6.7787 14.0754 8.24492 17.2576 8.56067 20.5315C8.85395 23.5992 10.3653 25.202 14.2451 25.1103C18.2378 25.0189 19.4559 27.3768 20.5612 30.1471C22.7042 19.547 26.133 17.4867 28.3434 15.6781C33.0355 11.809 27.2608 4.98648 25.1178 5.7649L25.1177 5.76474Z" fill="#8AC640"/>
<path d="M25.1177 5.7648C19.1626 7.87101 13.2749 8.39757 6.34966 12.7247C4.70301 13.755 1.22929 16.0899 0.552368 20.5544C3.07869 17.7154 8.92109 14.144 16.0721 11.8775C19.6813 10.7328 22.3206 9.97722 25.5237 8.71818C25.2983 7.25274 25.2983 6.68057 25.1177 5.7648Z" fill="#8AC640"/>
<path d="M32.7198 18.3098C32.7198 18.3098 32.2913 19.7981 31.4341 20.2789C31.4341 20.2789 30.8025 20.5079 29.5393 19.7983C29.1783 19.5922 28.9077 18.8826 28.9301 18.6534C28.9528 18.1039 29.2912 17.8522 29.2912 17.8522C29.2912 17.8522 29.6522 17.2339 30.0806 17.2569C30.5092 17.2797 31.2311 17.3485 31.4568 17.1424C31.6597 16.9135 32.7649 17.5542 32.7198 18.3098ZM23.5163 3.9095C23.5163 3.9095 23.4263 5.07729 23.2683 5.80977C23.2457 5.94727 22.5691 6.01602 22.0728 6.22195C23.0202 8.96924 28.7272 8.94627 29.4716 7.59568C29.1107 7.34381 28.389 6.95459 28.0506 6.81725C27.7122 6.67976 27.7347 6.70272 27.7122 6.0618C27.6898 5.42056 27.6445 4.23027 27.5994 3.90965C27.5543 3.58903 24.0579 3.58903 23.5165 3.90965L23.5163 3.9095Z" fill="#010101"/>
<path d="M23.7414 3.91012C23.7414 3.91012 23.7414 4.57417 23.6737 5.2151C23.6513 5.51275 23.6287 5.69587 23.5836 5.92477C23.5611 6.06227 24.3506 6.61163 24.5761 7.82505C25.6588 10.2747 28.1628 9.06143 29.2005 7.89379C28.8396 7.64192 28.2531 7.29849 27.5764 7.02381C27.2381 6.88631 27.396 6.58882 27.3735 5.94774C27.3509 5.30681 27.2607 4.36808 27.2156 4.02465C27.1703 3.68138 24.2828 3.58982 23.7416 3.91028L23.7414 3.91012Z" fill="#F0EFEF"/>
<path d="M23.5166 3.91027C23.5166 3.91027 23.4942 4.32245 23.4266 4.80322C23.7197 5.10071 24.1032 5.51289 24.3965 5.76476C24.5997 5.94804 25.0957 5.92507 25.5469 5.92507C25.953 5.92507 26.3139 5.97085 26.4719 5.87929C26.8329 5.69617 27.3515 5.23837 27.645 4.89494C27.6223 4.48276 27.5999 4.09355 27.5772 3.91027C27.5544 3.58981 24.0578 3.58981 23.5166 3.91027Z" fill="#010101"/>
<path d="M25.5688 5.65008C25.2982 5.65008 24.9823 5.62727 24.7343 5.58134C24.6214 5.55868 24.5086 5.48993 24.4183 5.44415C24.2604 5.32962 24.1024 5.19228 23.9222 5.05494C23.5612 4.78026 23.5388 4.61995 23.5388 4.55135C23.6966 3.10888 23.4936 1.89563 23.4936 1.89563C23.4936 1.89563 23.3356 1.27751 24.1928 1.1172C25.05 0.956894 25.5688 0.934082 25.5688 0.934082C25.5688 0.934082 26.1103 0.934082 26.9448 1.1172C27.802 1.27751 27.6441 1.89563 27.6441 1.89563C27.6441 1.89563 27.441 3.10904 27.599 4.55135C27.599 4.61995 27.5765 4.78026 27.2155 5.05494C26.8996 5.28384 26.6515 5.53555 26.4035 5.58149C26.1552 5.62727 25.8395 5.65008 25.5688 5.65008Z" fill="#010101"/>
<path d="M25.5688 0.338867C24.0801 0.338867 23.7867 0.75089 23.3581 1.20885C23.268 1.32322 23.3356 2.01008 23.4935 3.47537H23.6966C23.6966 3.47537 23.5611 3.06319 23.5838 2.58242C23.6064 2.10165 23.6966 2.12461 23.6289 2.01008C23.5387 1.87259 23.3581 1.64369 23.7643 1.41478C24.1703 1.18588 24.802 1.59791 25.5688 1.62087C26.3358 1.59791 26.9899 1.18588 27.3959 1.41478C27.802 1.64369 27.6216 1.87259 27.5313 2.01008C27.4411 2.14758 27.5538 2.10165 27.5765 2.58242C27.5989 3.06319 27.4636 3.47537 27.4636 3.47537H27.6665C27.802 2.01008 27.8922 1.36916 27.8245 1.25463C27.4411 0.75089 27.0576 0.361679 25.5688 0.339023V0.338867ZM32.7195 18.3791C32.7195 18.3791 32.291 19.7757 31.4563 20.2564C31.2759 20.1649 31.2985 20.0275 31.1405 19.8215C31.0953 19.7529 30.9373 19.7069 30.8699 19.6383C30.8022 19.5696 30.8248 19.4551 30.7119 19.3637C30.6217 19.2721 30.554 19.3407 30.4638 19.2721C30.3736 19.1805 30.3509 19.066 30.2834 18.9974C30.2382 18.9516 30.0578 18.9287 30.0127 18.8829C29.8999 18.7684 28.9073 18.5624 28.9526 18.3334C29.0427 17.9899 29.2233 17.7381 29.2233 17.7381C29.2233 17.7381 29.6519 17.0971 30.0803 17.1199C30.5089 17.1429 30.915 17.2345 31.1405 17.0284C31.3887 16.7993 32.7872 17.6465 32.7195 18.3791Z" fill="#010101"/>
<path d="M29.787 8.26004C29.787 8.26004 31.2081 7.91661 32.1781 8.85534C33.1482 9.81689 33.0804 11.0073 32.7873 11.74C33.0353 12.0376 33.4866 12.8618 33.1482 13.8462C34.6369 15.1282 33.9827 17.0972 32.652 18.4023C32.652 18.4023 32.3361 17.2117 31.0729 17.143C31.118 16.6852 29.8998 16.3188 30.4638 15.1282C29.6066 14.9223 29.6294 14.327 29.4939 13.5945C29.381 12.8617 29.787 8.26004 29.787 8.26004Z" fill="#010101"/>
<path d="M29.2682 8.90143C29.2682 8.90143 30.9149 8.05426 31.8849 9.0158C32.8548 9.9775 32.5841 11.0305 32.291 11.7631C32.539 12.0607 33.1254 12.9079 32.7646 13.9151C32.6968 14.1441 32.2007 14.1441 31.8396 14.7394C32.7418 14.2127 33.306 14.3501 33.5089 15.014C33.8248 16.0443 33.1254 17.2805 32.5164 17.9673C32.5164 17.9444 32.4939 17.9214 32.4939 17.8986C32.4037 18.2422 32.2909 18.9059 31.6143 19.6386C31.2757 20.005 31.0051 19.9592 30.6216 19.8676C30.1705 19.7531 30.0126 19.5468 29.3811 19.2036C29.02 18.9976 29.2231 18.7458 29.2231 18.5397C29.2231 18.4939 29.2682 18.4251 29.336 18.3337C29.3811 18.2192 29.5164 18.0361 29.7193 17.83C29.7193 17.83 30.0126 17.418 30.4413 17.4408C30.8699 17.4638 31.321 17.3722 31.4338 17.2577C31.4338 16.4564 30.5317 16.4335 30.8473 15.0599C30.8699 14.9912 30.9828 14.8766 31.3436 14.831C30.8022 14.7165 30.554 14.6935 30.1705 14.3273C29.8999 14.0755 29.6968 13.7549 29.6291 13.3429C29.4939 12.6332 29.2682 8.90143 29.2682 8.90143Z" fill="#F0EFEF"/>
<path d="M24.5081 7.45884C24.3728 7.27572 23.6737 6.35996 22.3426 5.99372C21.9593 5.87919 21.7111 6.19965 21.3276 6.42871C21.2148 6.35996 20.7186 6.13106 20.448 6.29121C20.1773 6.45136 19.9969 6.61183 19.7261 6.7262C19.5906 6.65745 19.2299 6.65745 18.9366 6.77198C18.6434 6.86354 18.1921 7.06963 17.7635 7.66478C17.4929 8.64929 22.5457 7.91665 22.5457 7.91665L24.5081 7.45884Z" fill="#010101"/>
<path d="M24.5543 7.45888C23.8323 7.20701 23.9453 6.36 22.3436 6.22266C22.0278 6.19969 21.8248 6.45156 21.5992 6.61171C21.7121 6.7264 21.8248 6.90936 21.8925 7.09249C21.6894 6.86374 21.3286 6.56593 20.9676 6.49718C20.6292 6.42875 20.4036 6.68046 20.0426 6.86374C20.1104 6.93218 20.1781 7.04671 20.2682 7.1842C19.9523 6.97827 19.7269 6.90952 19.2983 7.06967C19.005 7.16123 18.4411 7.4131 18.0125 8.03122C17.7419 9.01573 22.5691 7.91669 22.5691 7.91669L24.5543 7.45888Z" fill="#8AC640"/>
<path d="M28.794 7.82525C28.794 7.82525 28.794 7.57338 28.7716 7.34463C28.7716 7.29885 28.5911 7.18432 28.5911 7.13854L28.546 7.09276C28.546 7.09276 28.907 6.88667 29.1777 7.0012C29.4708 7.09276 29.6288 7.48197 29.6288 7.48197C30.1476 7.29885 30.1927 7.50494 30.4408 7.77962C30.9823 7.66509 31.0499 7.87103 31.3882 8.37492C31.3882 8.37492 30.9823 8.30617 30.1927 8.44336C29.4257 8.55789 28.794 7.80244 28.794 7.82525Z" fill="#010101"/>
<path d="M28.7048 7.71076C28.7048 7.71076 28.8402 7.59608 28.795 7.57326C29.043 7.43577 29.3815 7.27577 29.5395 7.71076C30.0583 7.52748 30.126 7.77935 30.3739 8.05419C31.0055 7.75654 31.0506 8.12278 31.0959 8.28294C30.8927 8.28294 30.5997 8.3059 30.1936 8.35169C29.4266 8.46621 28.6823 7.68764 28.7049 7.7106L28.7048 7.71076Z" fill="#8AC640"/>
<path d="M21.035 7.13834C21.035 7.13834 22.3208 7.59614 23.4035 7.52739C24.4864 7.43599 26.3359 7.34459 27.3284 7.93973C27.3284 7.93973 28.3436 7.57333 29.291 7.8252C30.2386 8.07692 31.9754 9.72548 31.4566 11.4653C31.4115 11.5798 31.1182 11.7629 30.7798 11.8775C30.7798 11.8775 30.9604 12.6557 30.6445 13.2968C30.3288 13.9149 29.6295 15.1055 29.6069 16.7538C29.5844 17.0285 29.5393 17.6006 29.4942 17.8755C27.7346 17.8069 25.0278 17.1428 22.366 17.1888C22.3885 16.8911 22.411 16.708 22.4338 16.4103H22.5012C22.3659 15.6547 22.3208 15.2655 22.1853 14.6932C21.3282 14.1438 20.4258 13.5027 19.659 12.2893C18.9146 11.0759 21.0351 7.13818 21.0351 7.13818L21.035 7.13834ZM29.7421 19.5011C29.7421 19.5011 31.1407 24.5838 29.4941 26.7128C29.4941 26.7128 29.7421 27.6972 29.1781 28.7504C29.0879 29.2082 28.9751 29.6204 28.9075 30.0782C28.6142 31.9785 28.1179 32.7797 27.9826 35.8245L26.629 35.8017C26.629 35.8017 26.4711 33.6039 25.9975 32.4363C25.7269 31.7725 24.6665 30.8794 24.7119 29.9866C24.7569 29.2998 24.8922 28.7274 26.0428 27.8117C26.133 26.4839 24.8246 25.2245 25.0277 20.2795L29.7421 19.5011Z" fill="#010101"/>
<path d="M29.3359 19.2943C29.697 21.6294 30.5315 25.0866 29.0202 26.7806C29.1094 27.2102 29.117 27.6531 29.0427 28.0856C28.9976 28.3603 28.9072 28.6579 28.7945 28.9784C28.569 29.5279 28.4788 30.3291 28.4112 30.8099C28.1177 32.7102 28.1177 32.802 27.9824 35.8467L26.6289 35.8237C26.6289 35.8237 26.4711 33.6259 25.9974 32.4585C25.7267 31.7946 25.1628 31.2222 25.1177 30.3293C25.0726 29.6426 25.5463 28.2688 26.6743 28.3146C26.6066 25.5445 25.3434 26.0939 25.005 20.3246L29.3359 19.2943ZM21.035 7.1377C21.035 7.1377 21.5311 7.298 22.0726 7.34394C22.6139 7.38957 23.2004 7.34394 23.7191 7.32082C24.8018 7.22941 26.3358 7.11488 27.3509 7.71003C27.3509 7.71003 27.9148 7.52691 28.524 7.57253C28.7947 7.5955 29.0655 7.82456 29.3812 7.91612C30.3736 8.16783 31.321 9.83921 30.8924 11.3503C30.8473 11.4648 30.5315 11.3503 30.1705 11.4648C30.2381 11.7854 30.2834 12.5179 29.9223 13.2963C29.539 14.0747 29.0427 15.0822 29.1329 17.0052C26.7644 16.8906 25.7043 16.7305 23.3582 16.6159C23.1552 15.7688 23.0197 14.9218 22.9972 14.4868C23.3131 14.3265 23.4934 14.1893 23.7417 13.9144C23.0651 14.029 22.7943 13.9832 22.3882 13.7541C21.9822 13.5252 21.2603 12.7926 20.8995 12.312C20.8544 12.266 20.6062 13.0213 20.0423 13.0445C19.8392 12.7468 20.6964 11.8996 20.5385 11.5792C19.9747 10.4115 21.035 7.1377 21.035 7.1377Z" fill="#F0EFEF"/>
<path d="M29.5161 17.3943C29.5161 17.3943 29.5612 18.2186 29.5612 18.4246C29.5612 18.6535 29.7418 19.3402 29.7643 19.6608C29.5161 20.0958 28.4334 21.0803 26.471 21.4467C24.5311 21.8587 21.9595 18.768 21.9595 18.768C22.0272 18.4704 22.2527 17.6004 22.4105 17.1426C22.4332 17.0969 22.4783 16.9824 22.4783 16.9366C22.6815 16.639 29.5161 17.3944 29.5161 17.3944V17.3943Z" fill="#010101"/>
<path d="M29.0204 17.4631C29.0204 18.0354 29.1106 18.4476 29.1783 18.814C29.2912 19.4781 29.4714 19.9129 29.4714 20.3479C29.4714 21.6757 27.7571 21.4466 26.3133 21.4926C24.3736 21.9047 22.7267 18.814 22.7267 18.814C22.8622 18.2875 22.9524 17.6922 23.1553 17.1886C23.1778 16.9139 23.2231 16.5705 23.2456 16.4102C25.9976 16.4102 27.9375 16.5705 29.0655 16.6848C29.1106 16.9367 29.0655 17.3717 29.0205 17.4633L29.0204 17.4631Z" fill="#F0EFEF"/>
<path d="M26.8543 20.416C26.8543 20.416 25.6589 17.7145 22.0722 18.5161C21.2151 20.9656 20.0647 23.7816 20.809 26.8264C20.0647 27.8567 19.2075 28.429 19.2075 30.3291C19.2075 32.2294 19.2978 32.5499 19.2978 32.5499L21.937 32.6874C21.937 32.6874 22.7942 31.5657 23.1324 30.3522C23.2228 30.0088 23.313 29.3907 23.2453 28.681C23.3355 28.5437 23.719 28.2232 23.7641 27.6051C23.7641 27.6051 25.0499 26.9184 25.7942 25.2472C26.4936 23.7358 26.313 22.431 26.8545 20.416H26.8543Z" fill="#010101"/>
<path d="M26.8543 20.4163C26.7869 20.1647 25.8844 17.6919 22.5459 18.4244C20.5835 23.7359 21.3053 25.9338 21.5984 26.8952C20.2675 28.6123 19.6587 28.9784 19.9293 32.4585H21.689C22.5009 31.1537 22.6813 30.6728 22.7264 28.9558C22.7264 28.887 22.4784 29.0933 22.2978 29.3222C22.4333 28.6125 22.8167 28.4752 23.1099 28.0402C23.2454 27.8569 23.3581 27.5824 23.3581 27.216C24.9372 26.1399 25.5236 24.7891 25.8619 23.3926C26.1326 22.4311 26.4485 20.8514 26.8545 20.4164L26.8543 20.4163Z" fill="#F0EFEF"/>
<path d="M21.2828 16.7302C21.2828 16.7302 21.892 16.753 22.4335 16.9365C22.9523 17.1193 22.9523 17.2338 23.1553 17.463C23.3582 17.6919 23.8546 18.0352 23.7644 18.3786C23.7192 18.5618 23.6064 18.6075 23.4486 18.7678C23.3809 18.8366 22.8845 19.386 22.7718 19.4545C22.7041 19.5003 22.6139 19.5691 22.5461 19.6149L22.2079 19.8438C21.9822 19.9583 21.8243 20.027 21.5763 20.0041C21.5763 20.0041 21.0123 19.9813 20.6513 19.592C20.6513 19.592 20.6062 19.4088 20.6966 19.3174C20.6966 19.3174 20.2227 18.9052 20.0874 18.6305C19.9519 18.356 19.9519 17.9666 20.0423 17.7607C20.0874 17.5544 20.9671 16.9821 21.283 16.7302H21.2828ZM21.8469 39.0064L21.7792 39.5788C21.7792 39.5788 21.5763 39.8307 20.0649 39.8077C18.531 39.7849 18.125 39.3042 17.9897 39.0523L17.8995 38.457C17.8995 38.457 18.1928 38.022 18.2603 38.022C18.7567 38.0678 20.4484 38.7548 21.6215 38.9376C21.7341 38.9376 21.7565 38.9835 21.8469 39.0064ZM25.1177 37.8389C25.1177 38.0906 25.0951 38.0906 25.0951 38.3425C25.3657 38.5485 26.0427 38.6631 27.3283 38.64C29.2006 38.5943 30.9375 39.2124 33.0578 38.8462L33.0805 38.434L32.8776 38.4112L25.3659 37.7929L25.1177 37.8389Z" fill="#010101"/>
<path d="M26.765 38.6408H27.3289C28.5471 38.5952 29.6976 38.8698 30.9381 38.9384C31.5924 38.9156 32.4045 38.7553 32.3367 38.2745L25.9304 37.725C25.5469 38.16 25.8401 38.5263 26.765 38.6408ZM19.4113 29.0024C19.6143 29.1399 20.9903 29.9641 23.2235 29.8495C23.1784 30.2844 23.201 31.1316 22.2085 32.6196C21.7122 33.3521 21.2836 34.6345 21.1934 36.2599C21.216 36.6261 21.4189 36.9466 21.1483 37.4274C21.2385 37.7249 21.5994 38.3202 21.7799 38.6866C21.9604 39.053 22.0506 39.465 20.855 39.4879C19.6368 39.5108 17.6744 39.3734 17.9452 38.4119C18.0807 37.9083 18.464 37.3816 18.5091 37.1755C18.5542 36.9696 18.5542 36.3514 18.9377 35.9393C19.2761 34.7946 19.1632 33.6956 19.0957 32.6654C18.9828 31.5894 18.96 29.8724 19.4113 29.0024ZM21.5091 10.3435C23.1107 8.16856 21.7573 6.42875 19.186 6.95515C18.1483 7.16139 17.1108 7.89404 17.0431 9.22167C16.7047 9.26745 15.9377 9.31323 15.5542 10.7326C15.2611 11.8316 15.1031 12.0377 14.5843 12.5871C14.2459 12.9763 14.6068 13.7777 14.8548 14.35C15.6895 16.3187 18.2609 16.502 19.998 17.9901C20.5845 17.8298 21.1935 17.1659 21.374 16.7311C19.9078 14.9681 20.2235 14.2814 19.637 13.3655C20.2688 13.1364 21.7124 12.2436 21.5093 10.3437L21.5091 10.3435Z" fill="#010101"/>
<path d="M21.192 10.206C21.2822 10.0685 21.4402 9.77119 21.5079 9.6565C21.5305 9.63369 21.7785 10.0687 21.8012 10.0459C22.4102 9.03839 22.5682 7.57326 21.8688 7.43592C21.7108 7.41295 21.4177 7.34436 21.1695 7.25264C20.7184 7.09233 20.3125 7.09233 19.5905 7.22983C18.5979 7.41295 17.6054 8.14544 17.6054 9.19854C17.6054 9.26729 18.3045 9.47338 18.5076 10.3204C18.1692 9.83962 17.5826 9.31307 16.8834 9.77103C16.1391 10.2518 16.5225 11.3507 15.5302 12.4954C15.1915 12.8844 15.2368 13.3425 15.5976 14.2581C16.1842 15.7004 18.9588 16.4789 20.4701 17.8524C20.831 17.6921 21.0791 17.3259 21.2596 17.0512C20.2444 15.9751 19.8385 14.9678 19.5452 14.2352C19.1843 13.388 18.7782 12.9074 17.9888 12.2661C18.3947 12.4263 18.7106 12.5866 18.8909 12.7239C19.0938 12.8614 19.3871 12.8843 19.6579 12.7927C20.6281 12.4496 21.1469 11.0758 21.192 10.206Z" fill="#F0EFEF"/>
<path d="M31.0048 10.5725C30.937 11.4425 30.3055 11.0075 29.9671 10.8473C29.2905 10.5497 28.6138 10.3436 27.8242 10.3436C27.0347 10.3436 26.0197 10.4123 25.14 10.6413C23.9218 10.9847 23.561 10.9619 23.0195 10.687C22.4783 10.3894 21.5308 9.65674 21.5308 9.65674C21.5308 9.65674 21.5082 9.88564 21.7339 10.1833C22.027 10.5497 22.6813 11.0075 23.561 11.3051C23.9896 11.4426 24.328 11.3508 24.7115 11.2594C26.7191 10.7556 28.8393 10.6641 30.6214 11.7629C30.7116 11.8087 31.0276 11.6714 31.1629 11.4653C31.3432 11.1678 31.0048 10.5725 31.0048 10.5725Z" fill="#010101"/>
<path d="M20.7409 19.2942C20.9213 19.4087 21.147 19.4775 21.395 19.6836C21.395 19.6836 21.192 19.6836 21.1019 19.592C20.9891 19.5232 20.7634 19.3172 20.7409 19.2942Z" fill="#0A1825"/>
<path d="M27.2607 1.14012C27.193 0.934182 26.6968 0.567627 25.5463 0.567627C24.3056 0.567627 23.9448 0.956994 23.9223 1.16293C23.9223 1.23168 23.8321 1.96447 23.8094 2.26181C23.8094 2.26181 23.8094 2.62821 23.8319 3.17758C23.8546 3.54382 23.9448 3.74991 23.9899 4.23068C24.035 4.73426 24.1705 5.05488 24.4185 5.46706C24.5313 5.5355 24.6215 5.6044 24.7344 5.62722C25.1855 5.71878 25.9751 5.74174 26.4037 5.62722C26.6517 5.55847 26.9676 5.12363 27.0352 4.73442C27.1254 4.25365 27.2156 3.91022 27.2382 3.61257C27.2833 3.31507 27.306 2.65118 27.3283 2.4679C27.396 1.96432 27.2833 1.1859 27.2609 1.14012H27.2607Z" fill="#F0EFEF"/>
<path d="M24.8914 29.4363C24.8914 29.4363 26.0872 29.9628 29.0421 29.505C29.0421 29.505 28.2077 33.7634 28.591 35.8924C28.591 35.8924 28.9743 36.4419 31.8167 37.495C31.8167 37.495 33.0799 37.8156 33.0349 38.4567C33.0349 38.4567 33.08 38.5941 31.5462 38.5481C30.0123 38.5024 28.5685 38.2277 27.5534 38.2277C26.5384 38.2277 25.4555 38.2735 25.2751 37.9758C25.0722 37.7011 25.3202 36.9914 25.6135 36.5793C25.9294 36.1443 25.839 35.8237 25.8167 35.0454C25.7486 33.0079 24.2147 30.9017 24.8914 29.4364V29.4363Z" fill="#010101"/>
<path d="M24.6435 29.8268C24.4857 30.0559 24.666 30.9257 24.8917 31.7727C25.1172 32.6199 25.6137 33.1236 25.7264 34.52C25.8391 35.8937 25.8617 36.0768 25.4783 36.8779C25.0946 37.6792 24.9819 38.412 26.3127 38.4348C27.6436 38.4577 28.3656 38.412 29.719 38.618C31.0725 38.8241 31.5462 38.8927 32.2905 38.7783C33.0349 38.6638 33.1927 38.412 32.8771 38.183C32.5612 37.9541 31.2529 37.7023 30.6888 37.2443C30.1474 36.8323 28.6136 36.1454 28.5911 35.9623C28.5234 35.344 28.5009 33.1005 28.6136 32.368C28.7264 31.6352 28.8842 30.5823 28.9295 30.3076C28.9746 30.0329 29.2001 29.7581 28.8167 29.8498C28.4333 29.9412 26.9896 30.1473 25.9069 30.0787C24.8241 30.0099 24.7113 29.7582 24.6435 29.827V29.8268Z" fill="#8AC640"/>
<path opacity="0.3" d="M25.4102 36.9001C25.7936 37.0832 26.3578 37.2207 26.7864 37.2207C26.7864 37.2207 26.6283 37.9763 26.8765 38.4341C27.1246 38.8919 25.0719 38.6173 25.0719 38.6173L24.9818 36.9918L25.4102 36.9001ZM31.3881 38.869C31.749 38.7544 31.9972 38.3424 31.7039 37.9534C31.388 37.5642 31.1173 37.4956 31.5233 37.4726C31.9294 37.4496 33.4181 38.3654 33.4181 38.3654L32.6511 39.0751L31.3881 38.869ZM24.5755 30.7187C25.0943 30.9019 25.884 30.9477 26.5607 30.9249C27.2375 30.9019 28.2526 30.8102 28.9069 30.5813C29.5609 30.3524 29.2902 30.8332 29.2902 30.8332L28.9292 31.1766C28.9292 31.1766 28.0722 31.5201 26.6736 31.4972C25.0269 31.4743 24.5306 31.2912 24.5306 31.2912L24.5755 30.7187ZM24.6206 31.8635C25.1396 32.0468 25.9291 32.0924 26.6058 32.0696C27.2826 32.0468 28.1849 32.0468 28.839 31.7949C29.1097 31.7033 28.9519 32.0925 28.9519 32.0925L28.839 32.2985C28.839 32.2985 27.9594 32.6191 26.5832 32.596C24.9365 32.5732 24.6434 32.4358 24.6434 32.4358L24.6206 31.8635Z" fill="#010101"/>
<path d="M23.1333 15.8147C23.1333 15.975 24.8929 16.8678 25.8628 17.0511C26.8327 17.2342 28.8629 17.0511 29.1786 16.9823L29.1335 17.3029C29.1335 17.3029 26.7199 17.6692 24.8702 17.1655C23.0205 16.6619 23.2235 16.5473 23.2235 16.5473L23.1333 15.8147Z" fill="#010101"/>
<path d="M19.3662 35.3439C19.637 35.4814 20.607 35.7332 21.2385 35.5959C21.3287 35.5729 21.2385 34.0161 21.4868 33.3064C21.8477 32.3219 22.4342 31.5205 22.7047 29.7809C21.7573 29.6891 20.6746 29.4373 20.1107 29.2542C19.3889 31.4979 19.6371 33.4208 19.3663 35.344L19.3662 35.3439ZM20.8776 36.7863C21.0356 36.8321 21.1483 37.0152 21.1936 36.9009C21.2836 36.6946 21.0356 36.3056 21.013 36.0309V36.0079C20.8101 35.825 19.4339 35.802 19.5243 35.8934C19.3663 36.191 19.1183 36.1454 19.0281 36.7406C18.983 37.0381 19.344 36.7863 19.6822 36.7634C19.0732 37.1754 18.374 37.7021 18.2611 38.1599C18.1256 38.801 18.3513 38.9841 19.0281 39.3277C19.6146 39.465 20.3139 39.488 20.8552 39.465C21.4643 39.3505 21.5772 39.053 21.3966 38.6408C21.1257 38.0226 20.9454 37.2213 20.8778 36.7862L20.8776 36.7863Z" fill="#F0EFEF"/>
<path d="M21.1243 7.04663C21.8688 7.48162 22.9064 7.36725 23.2897 7.34428C23.3801 7.34428 24.2824 7.18413 24.3274 7.20678C24.4176 7.22975 24.4176 7.2985 24.4176 7.2985C24.4176 7.2985 24.0794 7.48162 23.3124 7.52725C22.5905 7.57303 21.7333 7.52725 21.2598 7.2985C20.6958 7.04663 21.1243 7.04663 21.1243 7.04663ZM28.7941 7.48162C28.9294 7.57318 29.8091 7.91661 30.1926 8.32864C30.5309 8.69519 30.3505 8.67222 30.2828 8.58066C30.1926 8.46613 29.4933 7.98536 29.2225 7.87099C28.9519 7.75646 28.6135 7.55037 28.6135 7.50459C28.6135 7.45881 28.7941 7.48162 28.7941 7.48162Z" fill="#010101"/>
<path d="M21.0119 16.9833C21.6662 16.9377 22.3429 17.0978 22.7715 17.5556C22.9971 17.7847 23.3581 18.0364 23.3128 18.2653C23.3128 18.3341 23.1774 18.5173 23.0648 18.6547C22.9971 18.7461 22.7942 18.9522 22.7264 19.0209C22.6362 19.0897 22.3203 19.3415 22.2527 19.3872C22.185 19.4331 22.0948 19.5476 22.0272 19.5704C21.8017 19.685 21.5535 19.5934 21.328 19.479C21.1024 19.3643 21.3731 19.3415 21.1249 19.1584C20.5159 18.7234 20.1775 18.4256 20.4257 17.5786C20.4481 17.4183 20.6961 17.2352 21.0119 16.9833Z" fill="#F0EFEF"/>
<path opacity="0.4" d="M15.2603 11.7397C13.2302 12.5641 8.06436 15.174 6.59814 15.9753C7.81635 16.7537 8.38011 18.6309 8.5607 20.5311C8.58317 20.7144 8.60581 20.8747 8.62844 21.0577C8.65091 21.218 8.67354 21.3325 8.69602 21.4014C8.69602 21.4242 8.69602 21.47 8.71865 21.4928C10.0495 17.807 14.8089 13.9148 14.9896 13.6174C15.0797 13.4799 14.8768 12.8846 15.1926 12.3125C15.5987 11.5797 16.3883 11.259 15.2603 11.7397ZM20.0875 29.0253C21.1252 26.9191 21.1478 24.9043 21.1252 22.5462C21.1252 21.5619 21.8244 20.1652 21.4637 20.5544C20.1102 22.0883 16.704 24.9731 14.2453 25.1332C17.6965 25.0189 19.0499 26.7816 20.0875 29.0253Z" fill="#010101"/>
<path d="M4.61298 17.9208C5.89877 16.9822 12.5533 13.3881 14.1548 12.8842C15.7563 12.3576 15.2602 11.7395 15.2602 11.7395C15.2602 11.7395 8.76347 14.5784 4.88377 17.028" fill="#010101"/>
<path opacity="0.4" d="M23.5613 11.305C23.0425 11.099 22.6365 11.7172 22.7718 12.3125C22.9073 12.9078 24.1254 13.5715 24.0576 15.7468C24.0125 17.5324 23.629 18.2648 23.629 18.2648L22.7718 17.1661C22.7718 17.1661 22.6365 14.6935 22.3432 14.3271C22.0501 13.9607 21.1252 13.2968 20.7642 12.9534C20.4033 12.61 21.1701 12.1522 21.1252 11.5111C21.0801 10.893 21.5085 9.65673 21.5085 9.65673L23.5613 11.305ZM26.6968 21.0579C26.6518 22.7748 27.0353 25.3161 27.1931 26.5297C27.3511 27.7429 27.554 27.8345 27.1931 28.384C26.8323 28.9106 26.3586 29.7807 26.3586 29.7807L24.802 29.6432C24.802 29.6432 26.0426 28.0406 26.1102 27.7429C26.178 27.4454 25.4786 25.1789 25.4786 25.1789L26.6968 21.0579ZM23.6966 5.03167C24.0125 5.74103 24.3958 6.06165 25.0049 6.26789C25.3659 6.40523 26.7868 6.58835 27.3511 5.94727C27.5989 5.64962 27.4411 4.84839 27.4411 4.84839L26.1553 5.90149L24.4185 5.58103L24.2154 5.05448L23.6966 5.03167Z" fill="#010101"/>
<path d="M23.8322 6.61182C24.4188 7.00118 25.885 7.36743 26.291 7.43617C26.6971 7.52758 27.3512 7.00118 27.6671 6.86384C28.0055 6.70353 28.592 6.61182 29.2687 7.23009C29.3364 7.29883 29.1107 7.59633 29.1107 7.59633C29.0881 7.57352 28.9528 7.57352 28.7722 7.4818C28.5919 7.39039 28.4339 7.32165 28.1633 7.34446C27.0353 7.48196 26.8549 7.87101 25.8625 7.64195C24.87 7.41289 24.6217 7.22993 23.6518 7.27571" fill="#8AC640"/>
<path d="M23.8322 6.61182C24.4188 7.00118 25.885 7.36743 26.291 7.43617C26.6971 7.52758 27.3512 7.00118 27.6671 6.86384C28.0055 6.70353 28.592 6.61182 29.2687 7.23009C29.3364 7.29883 29.1107 7.59633 29.1107 7.59633C29.0881 7.57352 28.9528 7.57352 28.7722 7.4818C28.5919 7.39039 28.4339 7.32165 28.1633 7.34446C27.0353 7.48196 26.8549 7.87101 25.8625 7.64195C24.87 7.41289 24.6217 7.22993 23.6518 7.27571" stroke="#010101" stroke-width="1.141" stroke-miterlimit="10" stroke-linejoin="round"/>
<path d="M23.629 6.68042C24.3735 7.00104 25.8171 7.34447 26.2231 7.43603C26.6291 7.52759 27.2833 7.11541 27.5992 6.90948C28.1632 6.54308 28.8849 6.84073 29.2234 7.22994C29.4488 7.48181 29.5392 7.64212 29.5392 7.71071C29.5392 7.80227 29.2685 7.71071 29.2685 7.71071C29.1106 7.64196 28.9301 7.61931 28.7948 7.52743C28.6144 7.43603 28.4338 7.29869 28.1633 7.3215C27.0353 7.459 26.8098 7.84805 25.8399 7.61915C24.87 7.39009 24.6219 7.18416 23.5842 7.25275" fill="#8AC640"/>
<path d="M20.1328 28.063C20.0879 28.0173 20.1779 27.9715 20.1328 27.9715C19.8397 27.9715 19.4336 27.7426 19.2079 27.422C18.238 26.0027 16.8167 25.0641 14.2453 25.1327C10.388 25.2241 8.85399 23.6218 8.56087 20.5539C8.40307 18.8827 7.95185 17.2571 7.02692 16.3413L6.48547 16.6847C7.5231 17.6003 7.86163 19.0886 8.08701 21.1262C8.44803 24.194 10.8843 25.6136 13.7264 25.6593C16.6814 25.705 17.7415 26.3233 18.8467 27.8342C19.2077 28.315 19.6139 28.4753 19.9296 28.5439L20.1328 28.063Z" fill="#010101"/>
<path opacity="0.4" d="M30.5999 13.3425C30.6676 13.686 30.848 14.3499 31.2089 14.6703C31.367 14.8306 31.3895 14.8764 31.2542 14.8764C31.1187 14.8764 30.1262 14.8306 30.1262 14.8306L29.8555 14.3499L30.5999 13.3425Z" fill="#010101"/>
</g>
<defs>
<clipPath id="clip0_24_909">
<rect width="34" height="40" fill="white"/>
</clipPath>
</defs>
</svg>
