<svg width="40" height="40" viewBox="0 0 40 40" fill="none" xmlns="http://www.w3.org/2000/svg">
<g clip-path="url(#clip0_28_1828)">
<path d="M30.625 0H9.375C4.19733 0 0 4.19733 0 9.375V30.625C0 35.8027 4.19733 40 9.375 40H30.625C35.8027 40 40 35.8027 40 30.625V9.375C40 4.19733 35.8027 0 30.625 0Z" fill="#330000"/>
<path d="M19.3332 23.8021H13.1332L11.8666 27.7188C11.8332 27.8688 11.6999 27.9688 11.5499 27.9521H8.41657C8.23323 27.9521 8.18322 27.8521 8.23322 27.6521L13.5999 12.2022C13.6499 12.0355 13.6999 11.8522 13.7666 11.6522C13.8332 11.3022 13.8666 10.9355 13.8666 10.5688C13.8499 10.4855 13.9166 10.4022 13.9999 10.3855H14.0499H18.3165C18.4499 10.3855 18.5165 10.4355 18.5332 10.5188L24.6165 27.6855C24.6665 27.8688 24.6165 27.9521 24.4499 27.9521H20.9665C20.8499 27.9688 20.7332 27.8855 20.6999 27.7688L19.3332 23.8021ZM14.0999 20.4188H18.3332C18.2332 20.0688 18.0999 19.6521 17.9499 19.2188C17.7999 18.7688 17.6499 18.2855 17.4999 17.7855C17.3332 17.2688 17.1832 16.7688 17.0165 16.2521C16.8499 15.7355 16.6999 15.2522 16.5665 14.7688C16.4332 14.3022 16.3165 13.8688 16.1999 13.4688H16.1665C16.0165 14.1855 15.8332 14.9022 15.5999 15.6188C15.3499 16.4188 15.0999 17.2521 14.8332 18.0855C14.5999 18.9355 14.3499 19.7188 14.0999 20.4188Z" fill="#FF9A00"/>
<path d="M28.3333 13.302C27.7833 13.3187 27.25 13.102 26.85 12.7187C26.4667 12.302 26.2667 11.752 26.2833 11.1853C26.2667 10.6187 26.4833 10.0853 26.8833 9.70198C27.2833 9.31865 27.8167 9.11865 28.3667 9.11865C29.0167 9.11865 29.5167 9.31865 29.8833 9.70198C30.25 10.102 30.45 10.6353 30.4333 11.1853C30.45 11.752 30.25 12.302 29.85 12.7187C29.4667 13.1187 28.9 13.3353 28.3333 13.302ZM26.4667 27.7686V14.9353C26.4667 14.7687 26.5333 14.702 26.6833 14.702H29.9833C30.1333 14.702 30.2 14.7853 30.2 14.9353V27.7686C30.2 27.9519 30.1333 28.0354 29.9833 28.0354H26.7167C26.55 28.0354 26.4667 27.9354 26.4667 27.7686Z" fill="#FF9A00"/>
</g>
<defs>
<clipPath id="clip0_28_1828">
<rect width="40" height="40" fill="white"/>
</clipPath>
</defs>
</svg>
