<svg width="40" height="40" viewBox="0 0 40 40" fill="none" xmlns="http://www.w3.org/2000/svg">
<g clip-path="url(#clip0_24_15)">
<path d="M0 0H40V40H0" fill="#F7DF1E"/>
<path d="M25.3125 28.9062C26.1979 30.4167 27.3698 31.1719 28.8281 31.1719C30.651 31.1719 31.5625 30.4688 31.5625 29.0625C31.5625 28.2031 30.3906 27.4219 28.5156 26.6406C25.026 25.4948 23.3073 23.5417 23.3594 20.7812C23.3594 17.9688 25.4688 15.7812 28.8281 15.7812C31.3281 15.7812 33.099 16.7969 34.1406 18.8281L31.25 20.7031C30.625 19.5573 29.8177 19.0104 28.8281 19.0625C27.6823 19.1146 27.0833 19.6615 27.0312 20.7031C27.0312 21.7969 27.7344 22.2656 30.0781 23.2812C33.4375 24.6094 35.3125 26.0938 35.3125 29.2969C35.1562 32.6823 33.099 34.4271 29.1406 34.5312C25.8594 34.5312 23.5417 33.2552 22.1875 30.7031L25.3125 28.9062ZM12.0312 29.2188C12.6562 30.2344 13.0469 31.1719 14.6094 31.1719C15.8594 31.1719 16.4844 30.3906 16.4844 28.8281V15.8594H20.2344V28.6719C20.1823 32.3698 18.3073 34.2448 14.6094 34.2969C11.849 34.2448 9.97396 33.099 8.98438 30.8594L12.0312 29.2188Z" fill="#111212"/>
</g>
<defs>
<clipPath id="clip0_24_15">
<rect width="40" height="40" fill="white"/>
</clipPath>
</defs>
</svg>
