<svg width="40" height="40" viewBox="0 0 40 40" fill="none" xmlns="http://www.w3.org/2000/svg">
<g clip-path="url(#clip0_28_1845)">
<path d="M0 0H40V40H0" fill="#E8E8E8"/>
<path d="M4.29688 22.2656V26.6406H3.20312V22.2656C3.20312 21.901 3.35938 21.6666 3.67188 21.5624C3.98438 21.4583 4.29688 21.4322 4.60938 21.4843C4.92188 21.5364 5.18229 21.7447 5.39062 22.1093L7.03125 25.8593L8.67188 22.1093C8.88021 21.7447 9.14062 21.5364 9.45312 21.4843C9.76562 21.4322 10.0781 21.4583 10.3906 21.5624C10.7031 21.6666 10.8594 21.901 10.8594 22.2656V26.6406H9.76562V22.2656L8.04688 26.0937C7.89062 26.5104 7.55208 26.7187 7.03125 26.7187C6.51042 26.7187 6.17188 26.5104 6.01562 26.0937M11.7969 23.1249V25.6249C11.7969 26.0937 12.4219 26.6406 13.75 26.6406H15.9375V27.0312C15.9375 27.3437 15.651 27.4999 15.0781 27.4999H11.7969V28.2031H15C16.3542 28.2031 17.0312 27.8124 17.0312 27.0312V23.1249H15.9375V25.9374H13.5156C13.099 25.9374 12.8906 25.8072 12.8906 25.5468V23.1249M26.6406 12.9687C27.1875 12.8124 27.5781 13.4374 27.1094 13.7499L26.6406 12.9687ZM29.7656 20.7812C28.9844 20.052 28.2812 18.9322 27.6562 17.4218C27.2917 17.6822 27.0833 18.2552 27.0312 19.1406C26.9531 19.6874 25.7031 18.0468 26.5625 16.0156C26.6667 15.7031 26.6667 15.4947 26.5625 15.3906C25.4688 14.0624 26.0156 13.5937 24.9219 12.2656C23.8281 10.9374 25.1562 11.0156 26.4062 12.1093C28.5938 11.9531 30.7031 14.2968 31.4062 15.8593C32.1094 17.4218 32.5781 18.7499 33.0469 18.8281C34.0885 19.1406 34.9479 19.6354 35.625 20.3124C34.7917 20.3124 34.1406 20.4427 33.6719 20.7031C34.0625 22.0312 35.5469 22.0312 36.6406 23.1249C35.8594 21.6406 34.6094 21.4843 34.375 20.9374C35.3906 20.6249 35.4688 20.7812 36.25 20.5468C35.625 19.6614 34.6094 18.9322 33.2031 18.3593C33.2031 18.3593 32.7344 17.5781 31.875 15.6249C31.0156 13.6718 28.6719 11.6406 26.6406 11.6406C24.5312 9.99995 23.4375 11.2499 24.6094 12.4999C25.7812 13.7499 24.9219 13.9062 26.25 15.6249C25 19.2968 27.5781 20.8593 27.5781 18.8281L27.6562 18.3593C28.3594 19.9218 28.75 19.7656 29.5312 20.6249" fill="#005C87"/>
<path d="M17.8906 25.9375H20.8594C21.4323 25.9375 21.7188 25.7812 21.7188 25.4688V24.8438C21.7188 24.5833 21.4323 24.4531 20.8594 24.4531H19.6875C18.8281 24.4531 17.8906 24.0625 17.8906 23.3594V22.7344C17.8906 22.0312 18.4375 21.5625 19.5312 21.5625H22.8906V22.2656H19.7656C19.2969 22.2656 19.0625 22.4219 19.0625 22.7344V23.2031C19.0625 23.5677 19.2969 23.75 19.7656 23.75H21.25C22.1094 23.75 22.8125 24.2188 22.8125 24.6875V25.5469C22.8125 26.25 21.9531 26.6406 21.1719 26.6406H17.8906M26.5625 25.9375H25.625C25.0521 25.9375 24.7656 25.7292 24.7656 25.3125V22.8906C24.7656 22.474 25.0781 22.2656 25.7031 22.2656H27.1094C27.7344 22.2656 28.0469 22.474 28.0469 22.8906V25.3906C28.0469 25.599 27.9427 25.7552 27.7344 25.8594L26.875 25.0781H25.625M28.3594 26.4062C28.8281 26.3021 29.0625 25.9635 29.0625 25.3906V22.8125C29.0625 21.9792 28.4115 21.5625 27.1094 21.5625H25.4688C24.2188 21.5625 23.5938 21.9531 23.5938 22.7344V25.3906C23.5938 26.224 24.1927 26.6406 25.3906 26.6406H27.3438L28.2031 27.4219H29.5312M29.7656 21.5625H30.8594V25.3906C30.8594 25.7552 31.1719 25.9375 31.7969 25.9375H34.6875V26.6406H31.7188C30.4167 26.6406 29.7656 26.1979 29.7656 25.3125" fill="#E4830F"/>
</g>
<defs>
<clipPath id="clip0_28_1845">
<rect width="40" height="40" fill="white"/>
</clipPath>
</defs>
</svg>
