<svg width="44" height="40" viewBox="0 0 44 40" fill="none" xmlns="http://www.w3.org/2000/svg">
<g clip-path="url(#clip0_24_66)">
<path d="M22 23.9069C24.1659 23.9069 25.9217 22.1577 25.9217 20C25.9217 17.8422 24.1659 16.093 22 16.093C19.8341 16.093 18.0782 17.8422 18.0782 20C18.0782 22.1577 19.8341 23.9069 22 23.9069Z" fill="#61DAFB"/>
<path d="M22 28.0046C33.622 28.0046 43.0435 24.4209 43.0435 20.0001C43.0435 15.5793 33.622 11.9956 22 11.9956C10.378 11.9956 0.956543 15.5793 0.956543 20.0001C0.956543 24.4209 10.378 28.0046 22 28.0046Z" stroke="#61DAFB"/>
<path d="M15.0417 24.0023C20.8527 34.0293 28.6788 40.3659 32.5218 38.1556C36.3648 35.9452 34.7694 26.0248 28.9584 15.9978C23.1474 5.97078 15.3213 -0.365846 11.4783 1.84454C7.63534 4.05492 9.23074 13.9753 15.0417 24.0023Z" stroke="#61DAFB"/>
<path d="M15.0417 15.9977C9.23072 26.0247 7.63532 35.9451 11.4783 38.1554C15.3213 40.3658 23.1474 34.0292 28.9584 24.0022C34.7694 13.9752 36.3648 4.05481 32.5218 1.84443C28.6788 -0.365955 20.8527 5.97067 15.0417 15.9977Z" stroke="#61DAFB"/>
</g>
<defs>
<clipPath id="clip0_24_66">
<rect width="44" height="39" fill="white" transform="translate(0 0.5)"/>
</clipPath>
</defs>
</svg>
