<svg width="40" height="40" viewBox="0 0 40 40" fill="none" xmlns="http://www.w3.org/2000/svg">
<g clip-path="url(#clip0_24_90)">
<path d="M30.625 0H9.375C4.19733 0 0 4.19733 0 9.375V30.625C0 35.8027 4.19733 40 9.375 40H30.625C35.8027 40 40 35.8027 40 30.625V9.375C40 4.19733 35.8027 0 30.625 0Z" fill="#764ABC"/>
<path d="M26.028 25.8749C27.1812 25.7555 28.0561 24.7613 28.0162 23.5683C27.9766 22.3753 26.9823 21.4209 25.7894 21.4209H25.7098C24.477 21.4606 23.5227 22.4945 23.5623 23.7274C23.6022 24.3239 23.8408 24.8408 24.1986 25.1988C22.8466 27.8631 20.7787 29.8117 17.6769 31.4422C15.5692 32.5556 13.3821 32.9533 11.1949 32.675C9.40537 32.4364 8.01353 31.6409 7.13865 30.3288C5.86611 28.3802 5.74681 26.2725 6.82051 24.1649C7.57609 22.6536 8.76909 21.5402 9.52467 20.9834C9.36561 20.4666 9.127 19.5916 9.0077 18.9553C3.2415 23.1309 3.838 28.7778 5.58773 31.4422C6.90004 33.4305 9.56444 34.6633 12.5072 34.6633C13.3025 34.6633 14.0979 34.5838 14.8932 34.3849C19.9834 33.3908 23.8408 30.3684 26.028 25.8749Z" fill="#E8E8E8"/>
<path d="M33.0269 20.9438C30.0047 17.4045 25.5508 15.456 20.4607 15.456H19.8244C19.4664 14.7401 18.7108 14.2629 17.8758 14.2629H17.7963C16.5635 14.3027 15.609 15.3367 15.6488 16.5695C15.6886 17.7624 16.6827 18.7168 17.8758 18.7168H17.9553C18.8302 18.6771 19.5858 18.1204 19.9039 17.3648H20.6197C23.6419 17.3648 26.5052 18.2396 29.09 19.9496C31.0783 21.262 32.51 22.972 33.3053 25.0398C33.9814 26.7099 33.9416 28.3404 33.2258 29.7323C32.1124 31.8399 30.2433 32.9932 27.7777 32.9932C26.1871 32.9932 24.676 32.516 23.8805 32.1581C23.4432 32.5557 22.6478 33.192 22.0911 33.5896C23.801 34.3849 25.5508 34.8224 27.221 34.8224C31.0386 34.8224 33.8621 32.7148 34.9358 30.6071C36.0891 28.3007 36.0096 24.324 33.0269 20.9438Z" fill="#E8E8E8"/>
<path d="M12.8253 26.5509C12.8651 27.7439 13.8593 28.6983 15.0523 28.6983H15.1318C16.3645 28.6584 17.319 27.6245 17.2792 26.3917C17.2395 25.1987 16.2453 24.2444 15.0523 24.2444H14.9727C14.8932 24.2444 14.7739 24.2444 14.6944 24.2842C13.0639 21.58 12.3879 18.6372 12.6265 15.4559C12.7856 13.0699 13.5809 11.002 14.9727 9.29202C16.1259 7.82064 18.353 7.10483 19.864 7.06506C24.0794 6.98553 25.8689 12.2348 25.9881 14.3424C26.5051 14.4617 27.38 14.7401 27.9765 14.9389C27.4994 8.49667 23.5226 5.15625 19.705 5.15625C16.1259 5.15625 12.8253 7.74109 11.513 11.5587C9.68374 16.6489 10.8768 21.5402 13.1037 25.3977C12.9049 25.6759 12.7856 26.1134 12.8253 26.5509Z" fill="#E8E8E8"/>
</g>
<defs>
<clipPath id="clip0_24_90">
<rect width="40" height="40" fill="white"/>
</clipPath>
</defs>
</svg>
