<svg width="60" height="36" viewBox="0 0 60 36" fill="none" xmlns="http://www.w3.org/2000/svg">
<g clip-path="url(#clip0_24_893)">
<path d="M30 0C22.0312 0 17.1094 3.97403 15 11.9221C18.0469 7.94805 21.5625 6.54545 25.5469 7.48052C27.8906 7.94805 29.2969 9.58442 31.1719 11.4545C34.2188 14.4935 37.5 18 45 18C52.9688 18 57.8906 14.026 60 6.07792C56.9531 10.0519 53.4375 11.4545 49.4531 10.5195C47.1094 9.81818 45.7031 8.18182 43.8281 6.31169C40.7812 3.50649 37.5 0 30 0ZM15 18C7.03125 18 2.10938 21.974 0 29.9221C3.04688 25.9481 6.5625 24.5455 10.5469 25.4805C12.8906 25.9481 14.2969 27.5844 16.1719 29.4545C19.2188 32.4935 22.5 36 30 36C37.9688 36 42.8906 32.026 45 23.8442C41.9531 27.8182 38.4375 29.4545 34.4531 28.5195C32.1094 27.8182 30.7031 26.1818 28.8281 24.3117C25.7812 21.5065 22.5 18 15 18Z" fill="url(#paint0_linear_24_893)"/>
</g>
<defs>
<linearGradient id="paint0_linear_24_893" x1="-168" y1="1152" x2="5013.58" y2="4142.66" gradientUnits="userSpaceOnUse">
<stop stop-color="#2298BD"/>
<stop offset="1" stop-color="#0ED7B5"/>
</linearGradient>
<clipPath id="clip0_24_893">
<rect width="60" height="36" fill="white"/>
</clipPath>
</defs>
</svg>
