<svg width="85" height="85" viewBox="0 0 85 85" fill="none" xmlns="http://www.w3.org/2000/svg">
<path d="M33.8585 56.6275L56.5684 56.5685L56.6273 33.8586C56.6594 33.622 56.6402 33.3813 56.5711 33.1528C56.502 32.9242 56.3846 32.7132 56.2269 32.5339C56.0692 32.3547 55.8748 32.2114 55.6568 32.1139C55.4389 32.0163 55.2026 31.9667 54.9638 31.9684C54.7251 31.9701 54.4895 32.0231 54.273 32.1238C54.0565 32.2244 53.8641 32.3704 53.709 32.5519C53.5538 32.7334 53.4395 32.9461 53.3736 33.1756C53.3078 33.4051 53.2921 33.6461 53.3275 33.8822L53.2568 50.8999L30.7119 28.355C30.3993 28.0424 29.9754 27.8668 29.5334 27.8668C29.0913 27.8668 28.6674 28.0424 28.3548 28.355C28.0423 28.6675 27.8667 29.0915 27.8667 29.5335C27.8667 29.9755 28.0423 30.3994 28.3548 30.712L50.8998 53.2569L33.8821 53.3276C33.4398 53.3292 33.0163 53.5064 32.7046 53.8202C32.393 54.1341 32.2188 54.5589 32.2204 55.0011C32.2219 55.4434 32.3991 55.8669 32.713 56.1786C33.0268 56.4902 33.4516 56.6644 33.8939 56.6628L33.8585 56.6275Z" fill="#E8E8E8"/>
</svg>
